# xmcd
# 
# Track frame offsets:
#     219
#     17348
#     35268
#     55086
#     68673
#     83333
#     107651
#     125888
#     137184
#     147288
#     163755
#     177673
#     191877
#     206095
#     225596
#     241221
#     255651
#     272428
#     294308
# 
# Disc length: 4144
# 
# Revision: 4
# Processed by: cddbd v1.5.2PL0 Copyright (c) Steve Scherf et al.
# Submitted via: BonkEnc v1.0beta4
# 
DISCID=0d102e13
DTITLE=Various Artist - Ti amo italia 2
DYEAR=2002
DGENRE=Chanson
TTITLE0=Laura Pausini - Tra te e il mare
TTITLE1=Tiziano Ferro - Perdono
TTITLE2=Umberto tozzi - Gloria
TTITLE3=Toto cutugno - L'italiano
TTITLE4=Nek - Sei solo tu
TTITLE5=Zucchero - I volo
TTITLE6=Lisa - Sempre
TTITLE7=Domenico - Volare
TTITLE8=Adriano Celentano - 24000 Baci
TTITLE9=Sergio Caputo - L'astronave che arriva
TTITLE10=Pino d'angio - Ma quale idea
TTITLE11=Drupi - Vado via
TTITLE12=I santo California - Tornero
TTITLE13=Gigliola - La primera donna sulla luna
TTITLE14=Matia bazar - Solo tu
TTITLE15=Franco battiato - L animale
TTITLE16=Pino Daniele - A testa in Giu
TTITLE17=Amedeo Minghi - Un uomo venuto de lontano
TTITLE18=David de Marinis - Gino
EXTD=YEAR: 2002
EXTT0=
EXTT1=
EXTT2=
EXTT3=
EXTT4=
EXTT5=
EXTT6=
EXTT7=
EXTT8=
EXTT9=
EXTT10=
EXTT11=
EXTT12=
EXTT13=
EXTT14=
EXTT15=
EXTT16=
EXTT17=
EXTT18=
PLAYORDER=
